<?xml version="1.0" standalone="no"?>
<!DOCTYPE svg PUBLIC "-//W3C//DTD SVG 20010904//EN"
 "http://www.w3.org/TR/2001/REC-SVG-20010904/DTD/svg10.dtd">
<svg version="1.0" xmlns="http://www.w3.org/2000/svg"
 width="112.000000pt" height="112.000000pt" viewBox="0 0 112.000000 112.000000"
 preserveAspectRatio="xMidYMid meet">

<g transform="translate(0.000000,112.000000) scale(0.100000,-0.100000)"
fill="#000000" stroke="none">
<path d="M0 560 l0 -560 560 0 560 0 0 80 0 80 -32 0 c-67 1 -205 12 -263 22
-33 5 -77 11 -98 13 -21 3 -42 7 -46 10 -5 2 -26 7 -47 11 -22 3 -52 12 -68
20 -21 10 -32 11 -37 3 -5 -8 -8 -8 -13 0 -4 6 -1 13 6 15 62 18 99 26 117 26
12 0 19 4 16 10 -3 6 -28 10 -56 10 -50 0 -62 11 -31 29 9 6 13 11 8 11 -6 0
-1 7 10 15 18 14 18 14 -5 15 -23 0 -23 0 -6 27 13 19 15 28 6 31 -16 5 5 32
25 32 18 0 18 14 -1 30 -18 15 -19 36 -2 44 8 3 6 8 -7 17 -25 15 -4 29 45 29
19 0 40 5 47 12 6 6 33 11 61 9 27 -1 52 3 56 9 5 8 11 8 21 -1 19 -16 68 5
97 43 21 26 26 28 51 18 22 -8 31 -7 44 6 15 16 19 13 60 -32 l43 -49 -3 70
-3 70 -42 3 c-27 2 -43 8 -43 16 0 8 -7 19 -15 26 -14 12 -35 71 -41 117 -3
22 -1 22 72 16 82 -7 106 10 28 21 -25 3 -65 14 -89 25 -38 17 -43 23 -48 57
-3 22 -7 48 -9 58 -3 18 3 20 49 18 29 0 55 3 58 8 3 5 13 7 23 4 14 -5 14 -4
2 4 -9 7 -195 11 -537 12 l-523 1 0 -561z m676 263 c-6 -20 -28 -55 -48 -77
-21 -21 -38 -45 -38 -52 0 -7 -8 -17 -17 -23 -14 -8 -17 -25 -18 -98 0 -72 -4
-93 -20 -115 -11 -15 -25 -28 -32 -28 -7 0 -17 -8 -23 -17 -9 -17 -12 -16 -32
7 l-21 25 6 -32 c11 -54 -2 -90 -35 -104 -17 -7 -27 -17 -24 -25 5 -13 -47
-34 -84 -34 -13 0 -13 -1 0 -11 17 -12 -2 -10 -108 12 -105 21 -102 63 16 194
30 33 79 94 110 135 120 160 211 238 310 265 71 20 71 20 58 -22z m-46 -164
c15 -35 2 -55 -40 -61 -21 -3 -25 1 -22 22 3 27 28 70 41 70 5 0 14 -14 21
-31z m-435 -429 c19 -8 19 -9 -2 -9 -12 -1 -25 4 -28 9 -7 12 2 12 30 0z m44
-26 c2 -2 -21 -4 -52 -4 -31 0 -58 4 -62 9 -5 9 104 3 114 -5z"/>
<path d="M1073 993 c9 -2 25 -2 35 0 9 3 1 5 -18 5 -19 0 -27 -2 -17 -5z"/>
<path d="M1077 563 c-11 -10 -8 -20 7 -26 10 -4 14 0 13 14 -1 20 -9 24 -20
12z"/>
<path d="M1006 372 c-2 -4 10 -8 29 -8 19 0 31 4 29 8 -3 4 -16 8 -29 8 -13 0
-26 -4 -29 -8z"/>
<path d="M1000 239 c0 -15 -5 -19 -21 -17 -12 2 -26 -5 -32 -14 -13 -20 -4
-33 15 -22 7 5 19 9 27 9 14 0 30 65 17 65 -4 0 -6 -9 -6 -21z"/>
</g>
</svg>
